<svg xmlns="http://www.w3.org/2000/svg" xmlns:xlink="http://www.w3.org/1999/xlink" width="1394.924" height="419.076" viewBox="0 0 1394.924 419.076"><defs><clipPath id="clip-path"><path id="Caminho_21" data-name="Caminho 21" d="M744.967,191.2c-69.308,0-129.319,28.471-153.627,37.374v40.351c0,112.151.425,189.6,65.662,254.809,25.129,25.128,86.263,66.3,86.263,66.3s61.621-41.141,86.78-66.3c65.358-65.358,65.146-134,65.146-239.829V228.087C864.775,218.7,810.234,191.2,744.967,191.2Z" transform="translate(-591.34 -191.2)" fill="none"></path></clipPath><linearGradient id="linear-gradient" x1="0.5" y1="-0.157" x2="0.5" y2="0.669" gradientUnits="objectBoundingBox"><stop offset="0" stop-color="#263238" stop-opacity="0.349"></stop><stop offset="0.42" stop-color="#263238" stop-opacity="0.149"></stop><stop offset="0.89" stop-color="#263238" stop-opacity="0.02"></stop><stop offset="1" stop-color="#263238" stop-opacity="0"></stop></linearGradient><clipPath id="clip-path-2"><path id="Caminho_24" data-name="Caminho 24" d="M629.154,409.508a160.117,160.117,0,0,0,21.873,43.634c13.491,18.748,45.881,49.406,45.881,49.406s31.6-30.659,45.091-49.406c9.543-13.246,16.8-28.287,22.2-45.44C777.01,375.648,616.321,383.555,629.154,409.508Z" transform="translate(-614.17 -205.23)" fill="none"></path></clipPath></defs><g id="Grupo_8" data-name="Grupo 8" transform="translate(-129 -183)"><g id="Grupo_7" data-name="Grupo 7"><g id="Grupo_6" data-name="Grupo 6"><g id="Grupo_3" data-name="Grupo 3" transform="translate(0 41)"><g id="Grupo_2" data-name="Grupo 2" transform="translate(48 0)"><g id="Google_2015_logo" transform="translate(469 182)"><path id="Caminho_12" data-name="Caminho 12" d="M161.691,70.078c0,25.953-20.3,45.078-45.22,45.078S71.25,96.031,71.25,70.078C71.25,43.942,91.553,25,116.47,25S161.691,43.942,161.691,70.078Zm-19.8,0c0-16.218-11.767-27.315-25.425-27.315S91.045,53.86,91.045,70.078c0,16.056,11.767,27.315,25.425,27.315S141.9,86.113,141.9,70.078Z" transform="translate(72.825 24.854)" fill="#7b7979"></path><path id="Caminho_13" data-name="Caminho 13" d="M209.691,70.078c0,25.953-20.3,45.078-45.22,45.078s-45.22-19.125-45.22-45.078c0-26.116,20.3-45.078,45.22-45.078S209.691,43.942,209.691,70.078Zm-19.8,0c0-16.218-11.767-27.315-25.425-27.315s-25.425,11.1-25.425,27.315c0,16.056,11.767,27.315,25.425,27.315S189.9,86.113,189.9,70.078Z" transform="translate(122.379 24.854)" fill="#7b7979"></path><path id="Caminho_14" data-name="Caminho 14" d="M253.647,27.723v80.929c0,33.29-19.633,46.887-42.842,46.887-21.848,0-35-14.613-39.956-26.563l17.234-7.174c3.069,7.337,10.589,15.995,22.7,15.995,14.857,0,24.063-9.166,24.063-26.421v-6.483h-.691c-4.431,5.467-12.967,10.243-23.738,10.243-22.539,0-43.188-19.633-43.188-44.9C167.23,44.8,187.879,25,210.418,25c10.751,0,19.287,4.776,23.738,10.081h.691V27.744h18.8Zm-17.4,42.517c0-15.873-10.589-27.478-24.063-27.478-13.658,0-25.1,11.6-25.1,27.478,0,15.71,11.442,27.152,25.1,27.152C225.661,97.393,236.249,85.951,236.249,70.241Z" transform="translate(171.912 24.854)" fill="#7b7979"></path><path id="Caminho_15" data-name="Caminho 15" d="M234.808,3V135.1H215.5V3Z" transform="translate(221.745 2.142)" fill="#7b7979"></path><path id="Caminho_16" data-name="Caminho 16" d="M296.016,84.925l15.365,10.243a44.869,44.869,0,0,1-37.558,19.978c-25.608,0-44.732-19.8-44.732-45.078,0-26.807,19.287-45.078,42.517-45.078,23.393,0,34.835,18.617,38.574,28.677l2.053,5.122-60.26,24.958C256.588,92.79,263.762,97.4,273.823,97.4,283.9,97.4,290.894,92.444,296.016,84.925ZM248.723,68.706,289,51.98c-2.215-5.63-8.881-9.552-16.726-9.552C262.218,42.428,248.215,51.309,248.723,68.706Z" transform="translate(235.775 24.844)" fill="#7b7979"></path><path id="Caminho_17" data-name="Caminho 17" d="M71.351,83.675V64.551H135.8a63.368,63.368,0,0,1,.955,11.544c0,14.349-3.923,32.091-16.564,44.733-12.3,12.8-28.006,19.633-48.818,19.633C32.8,140.46.36,109.039.36,70.465S32.8.47,71.371.47c21.34,0,36.542,8.373,47.964,19.287L105.84,33.252A48.749,48.749,0,0,0,71.351,19.595c-28.169,0-50.2,22.7-50.2,50.87s22.031,50.87,50.2,50.87c18.271,0,28.677-7.337,35.343-14,5.406-5.406,8.963-13.129,10.365-23.677Z" transform="translate(-0.36 -0.47)" fill="#7b7979"></path></g><path id="Caminho_18" data-name="Caminho 18" d="M52.847,47.834q-24.073,0-35.993-10.794T4.313,9.317H18.834Q20,22.053,29.434,28.149t22.792,6.1q12.658,0,20.384-5.2t7.727-14.133q0-9.4-8-13.667T44.809-7.184q-19.53-4.155-28.033-11.532t-8.5-19.647q0-13.823,11.066-22.675t29.392-8.853q19.258,0,31.062,8.93T92.3-35.723H77.619Q75.367-56.379,49.352-56.379q-12.58,0-19.491,4.737T22.95-39.062q0,7.144,5.552,10.716t20.734,6.911a195.613,195.613,0,0,1,24.112,6.6A38.6,38.6,0,0,1,88.646-4.7q6.368,6.872,6.368,18.443,0,14.677-11.687,24.384T52.847,47.834ZM166.223,24.227V5.978H156.205q-31.838,0-31.838,17.317a11.22,11.22,0,0,0,4.659,9.668q4.659,3.378,12.58,3.378a31.793,31.793,0,0,0,13.978-3.262A26.831,26.831,0,0,0,166.223,24.227Zm0,13.2q-11.182,10.406-28.81,10.406-12.269,0-20.19-6.639A21.317,21.317,0,0,1,109.3,24.072q0-28.888,49.777-28.888h7.144a62.786,62.786,0,0,0-.932-12.852,10.664,10.664,0,0,0-5.2-6.639q-4.271-2.64-13.59-2.64-19.569,0-20.19,13.978h-14.6q1.631-25.393,35.566-25.393,15.842,0,24.694,6.29t8.853,24.694V45.893h-14.6Zm53.426-62.434v70.9h-14.6v-70.9H192.936V-36.5H205.05v-7.3q0-26.092,23.063-26.092a49.537,49.537,0,0,1,10.949.932v12.735A50.261,50.261,0,0,0,230.21-57q-5.358,0-7.96,2.99t-2.6,10.367V-36.5h15.609v11.493ZM281.7,47.834q-18.171,0-29.2-11.376T241.47,4.736q0-20.19,10.678-31.644t27.917-11.454q17.628,0,28.15,11.26T318.737,4.736V8.23H256.691q.932,14.288,7.882,21.2A23.336,23.336,0,0,0,281.7,36.341a25.308,25.308,0,0,0,13.861-3.922,13.2,13.2,0,0,0,6.484-11.143h15.143q-1.708,12.735-11.532,19.647T281.7,47.834Zm21.588-51.1q-1.786-11.881-8-17.783a21.268,21.268,0,0,0-15.22-5.9A21.324,21.324,0,0,0,265-21.085q-6.29,5.863-8,17.822ZM464.417,12.812q0,16-10.872,24.539T421.94,45.893H379.307V-67.949h40.536q18.171,0,28.577,7.765t10.406,21.277q0,16.463-16.385,24.384,11.027,2.8,16.5,10.289A28.162,28.162,0,0,1,464.417,12.812ZM394.373-20.269h25.315q12.5,0,18.4-4t5.9-13.318q0-8.387-5.746-12.619T418.29-54.437H394.373Zm0,52.65h27.412q27.024,0,27.024-19.569,0-10.173-6.251-14.871t-22.714-4.7H394.373ZM526.23-23.142a32.8,32.8,0,0,0-8.93-.932q-11.182,0-19.181,11.726V45.893H483.443V-36.5h14.677v11.493q9.241-13.357,21.433-13.357a39.1,39.1,0,0,1,6.678.621Zm43.564-15.22q17.628,0,28.15,11.26T608.467,4.736q0,20.5-10.522,31.8t-28.15,11.3q-17.55,0-28.072-11.3T531.2,4.736q0-20.579,10.522-31.838T569.795-38.363Zm0,74.7a20.945,20.945,0,0,0,17.006-7.96q6.523-7.96,6.523-23.646,0-15.764-6.523-23.724a20.945,20.945,0,0,0-17.006-7.96,20.945,20.945,0,0,0-17.006,7.96q-6.523,7.96-6.523,23.724,0,15.686,6.523,23.646A20.945,20.945,0,0,0,569.795,36.341ZM728.055-36.5,703.283,45.893H689.305L671.445-14.678,653.662,45.893H639.684L614.835-36.5h16.23l15.143,62.823L664.767-36.5h13.357L696.76,26.324,711.9-36.5Zm41.079,84.333q-33.78,0-35.333-26.558h14.677q.155,15.065,20.5,15.065,9.086,0,13.861-3.766a11.556,11.556,0,0,0,4.776-9.435q0-5.591-4.659-7.882t-19.22-5.941q-14.56-3.65-21.277-8.154t-6.717-15.842q0-10.25,8.348-16.968t22.326-6.717q32.382,0,33.081,23.063H784.9q-.777-11.648-17.472-11.648a24.226,24.226,0,0,0-12.231,2.8A8.9,8.9,0,0,0,750.342-16q0,4.815,3.727,6.95T772.746-3.3Q787.694.309,794.955,5.124t7.261,16.618a23.231,23.231,0,0,1-8.969,18.676Q784.277,47.834,769.135,47.834ZM833.9,45.893H819.222V-36.5H833.9Zm0-98H819.222V-67.949H833.9Zm36.265,26.092q10.949-12.347,24.617-12.347,27.878,0,27.878,30.363V45.893H907.981V-7.379q0-10.1-3.611-14.521t-11.842-4.426q-11.182,0-22.365,13.2V45.893H855.487V-36.5h14.677Zm140.555,65.541q0,39.759-35.877,39.759-15.531,0-24.5-6.756a21.581,21.581,0,0,1-8.969-18.171h15.143q0,13.512,18.171,13.512,10.25,0,15.842-5.63t5.591-22.093V36.031q-9.785,11.8-23.529,11.8-16.152,0-25-11.493T938.733,5.357q0-20.19,9.9-31.955t24.888-11.765q13.357,0,22.6,8.231V-36.5h14.6Zm-14.6-17.317V-16.93q-9.474-10.017-21.666-10.017-9.4,0-15.026,8.115T953.8,5.357q0,15.22,5.319,23.1a16.812,16.812,0,0,0,14.716,7.882Q986.1,36.341,996.12,22.208Z" transform="translate(465.205 442.585)" fill="#707070"></path></g></g><g id="safebrowsing-logo" transform="translate(125.15 181)"><path id="Caminho_19" data-name="Caminho 19" d="M591.33,228.6v40.351c0,36.9.023,70.039,2.4,100.524,4.778,61.265,19.275,110.531,63.049,154.285,25.128,25.128,86.476,66.3,86.476,66.3V228.6C679.447,228.6,615.638,219.7,591.33,228.6Z" transform="translate(-587.48 -168.989)" fill="#66bb6a"></path><path id="Caminho_20" data-name="Caminho 20" d="M793.255,228.087c-151.353-.282-88.117,0-151.925,0V590.034s61.621-41.141,86.78-66.3c65.358-65.358,65.146-134,65.146-239.829Z" transform="translate(-485.555 -168.989)" fill="#388e3c"></path><g id="Grupo_4" data-name="Grupo 4" transform="translate(3.88 22.211)" clip-path="url(#clip-path)"><rect id="Ret&#xE2;ngulo_1" data-name="Ret&#xE2;ngulo 1" width="328.766" height="27.043" transform="translate(-11.729 37.343)" fill="url(#linear-gradient)"></rect></g><g id="Grupo_5" data-name="Grupo 5" transform="translate(73.25 64.842)" clip-path="url(#clip-path-2)"><path id="Caminho_26" data-name="Caminho 26" d="M49.406,0A49.406,49.406,0,0,1,98.812,49.406C98.812,76.692,0,76.692,0,49.406A49.406,49.406,0,0,1,49.406,0Z" transform="translate(34.487 254.475)" fill="#fafafa"></path><path id="Caminho_22" data-name="Caminho 22" d="M613.89,362.374a84.746,84.746,0,0,1,139.139-64.985C771.479,312.734,613.89,409.177,613.89,362.374Zm84.744-68.154a68.154,68.154,0,0,0-68.154,68.154c0,37.64,136.307,37.64,136.307,0a68.243,68.243,0,0,0-68.153-68.154Z" transform="translate(-614.741 -57.642)" fill="#fafafa"></path><path id="Caminho_23" data-name="Caminho 23" d="M601.95,386.714a121.024,121.024,0,1,1,242.047,0C843.93,453.525,601.95,453.553,601.95,386.714ZM722.974,283.1A103.613,103.613,0,0,0,619.361,386.714c0,57.224,207.226,57.224,207.226,0A103.734,103.734,0,0,0,722.974,283.131Z" transform="translate(-639.081 -81.982)" fill="#fafafa"></path></g><path id="Caminho_25" data-name="Caminho 25" d="M895.16,241.622V210.629c0-11.151-15.405-26.739-29.17-26.739H617.957c-13.734,0-26.617,15.588-26.617,26.739v30.993H895.19Z" transform="translate(-587.46 -181.89)" fill="#e0e0e0"></path><circle id="Elipse_6" data-name="Elipse 6" cx="8.933" cy="8.933" r="8.933" transform="translate(32.412 23.548)" fill="#fff"></circle><circle id="Elipse_7" data-name="Elipse 7" cx="8.933" cy="8.933" r="8.933" transform="translate(65.106 23.548)" fill="#fff"></circle></g></g></g><circle id="Elipse_8" data-name="Elipse 8" cx="50.075" cy="50.075" r="50.075" transform="translate(229.848 300.687)" fill="#fafafa"></circle></g></svg>